<?xml version="1.0" encoding="utf-8"?>
<svg xmlns="http://www.w3.org/2000/svg">
    <defs>
        <symbol id="menu" viewBox="0 0 24 24" fill="currentColor">
            <path d="M3,6H21V8H3V6M3,11H21V13H3V11M3,16H21V18H3V16Z"/>
        </symbol>
        <symbol id="close" viewBox="0 0 24 24" fill="currentColor">
            <path d="M19,6.41L17.59,5L12,10.59L6.41,5L5,6.41L10.59,12L5,17.59L6.41,19L12,13.41L17.59,19L19,17.59L13.41,12L19,6.41Z"/>
        </symbol>
        <symbol id="home" viewBox="0 0 24 24" fill="currentColor">
            <path d="m6 19h3v-6h6v6h3v-9l-6-4.5-6 4.5zm-2 2v-12l8-6 8 6v12h-7v-6h-2v6z"/>
        </symbol>
        <symbol id="import" viewBox="0 0 24 24" fill="currentColor">
            <path d="M14,12L10,8V11H2V13H10V16M20,18V6C20,4.89 19.1,4 18,4H6A2,2 0 0,0 4,6V9H6V6H18V18H6V15H4V18A2,2 0 0,0 6,20H18A2,2 0 0,0 20,18Z"/>
        </symbol>
        <symbol id="export" viewBox="0 0 24 24" fill="currentColor">
            <path d="m12 16-5-5 1.4-1.45 2.6 2.6v-8.15h2v8.15l2.6-2.6 1.4 1.45zm-6 4c-.55 0-1.021-.196-1.412-.587-.392-.392-.588-.863-.588-1.413v-3h2v3h12v-3h2v3c0 .55-.196 1.021-.587 1.413-.392.391-.863.587-1.413.587z"/>
        </symbol>
        <symbol id="add" viewBox="0 0 24 24" fill="currentColor">
            <path d="M19,13H13V19H11V13H5V11H11V5H13V11H19V13Z"/>
        </symbol>
        <symbol id="remove" viewBox="0 0 24 24" fill="currentColor">
            <path d="M19,6.41L17.59,5L12,10.59L6.41,5L5,6.41L10.59,12L5,17.59L6.41,19L12,13.41L17.59,19L19,17.59L13.41,12L19,6.41Z"/>
        </symbol>
        <symbol id="chevron-down" viewBox="0 0 24 24" fill="currentColor">
            <path d="M7.41,8.58L12,13.17L16.59,8.58L18,10L12,16L6,10L7.41,8.58Z"/>
        </symbol>
        <symbol id="arrow-down" viewBox="0 0 24 24" fill="currentColor">
            <path d="M11,4H13V16L18.5,10.5L19.92,11.92L12,19.84L4.08,11.92L5.5,10.5L11,16V4Z"/>
        </symbol>
        <symbol id="edit" viewBox="0 0 24 24" fill="currentColor">
            <path d="m5 19h1.425l9.775-9.775-1.425-1.425-9.775 9.775zm-2 2v-4.25l13.2-13.175c.2-.183.421-.325.663-.425.241-.1.495-.15.762-.15s.525.05.775.15.467.25.65.45l1.375 1.4c.2.183.346.4.438.65.091.25.137.5.137.75 0 .267-.046.521-.137.762-.092.242-.238.463-.438.663l-13.175 13.175h-4.25zm16-14.6-1.4-1.4zm-3.525 2.125-.7-.725 1.425 1.425z"/>
        </symbol>
        <symbol id="edit-all" viewBox="0 0 24 24" fill="currentColor">
            <path d="m5 3h7v2h-7v14h14v-7h2v7c0 1.097-.903 2-2 2h-14c-1.097 0-2-.903-2-2v-14c0-1.11.89-2 2-2zm3 13v-4.25l9.2-9.175c.2-.183.421-.325.662-.425.242-.1.496-.15.763-.15s.525.05.775.15.467.25.65.45l1.375 1.4c.2.183.346.4.438.65.091.25.137.5.137.75 0 .267-.046.521-.137.762-.092.242-.238.463-.438.663l-9.175 9.175zm7.775-9.2-5.775 5.775v1.425h1.425l5.775-5.775-.725-.7z"/>
        </symbol>
        <symbol id="item-add" viewBox="0 0 24 24" fill="currentColor">
            <path d="M12,20C7.59,20 4,16.41 4,12C4,7.59 7.59,4 12,4C16.41,4 20,7.59 20,12C20,16.41 16.41,20 12,20M12,2A10,10 0 0,0 2,12A10,10 0 0,0 12,22A10,10 0 0,0 22,12A10,10 0 0,0 12,2M13,7H11V11H7V13H11V17H13V13H17V11H13V7Z"/>
        </symbol>
        <symbol id="expand" viewBox="0 0 24 24" fill="currentColor">
            <path d="m20 5v-2h-16v2h7v12.17l-5.5-5.5-1.42 1.41 7.92 7.92 7.92-7.92-1.42-1.41-5.5 5.5v-12.17z"/>
        </symbol>
        <symbol id="search" viewBox="0 0 24 24" fill="currentColor">
            <path d="m19.6 21-6.3-6.3c-.5.4-1.075.717-1.725.95s-1.342.35-2.075.35c-1.817 0-3.354-.629-4.613-1.887-1.258-1.259-1.887-2.796-1.887-4.613s.629-3.354 1.888-4.612c1.258-1.259 2.795-1.888 4.612-1.888s3.354.629 4.613 1.888c1.258 1.258 1.887 2.795 1.887 4.612 0 .733-.117 1.425-.35 2.075s-.55 1.225-.95 1.725l6.3 6.3zm-10.1-7c1.25 0 2.312-.437 3.187-1.312s1.313-1.938 1.313-3.188-.438-2.312-1.313-3.187-1.937-1.313-3.187-1.313-2.313.438-3.188 1.313c-.874.875-1.312 1.937-1.312 3.187s.438 2.313 1.313 3.188 1.937 1.312 3.187 1.312z"/>
        </symbol>
        <symbol id="settings" viewBox="0 0 24 24" fill="currentColor">
            <path d="M12,8A4,4 0 0,1 16,12A4,4 0 0,1 12,16A4,4 0 0,1 8,12A4,4 0 0,1 12,8M12,10A2,2 0 0,0 10,12A2,2 0 0,0 12,14A2,2 0 0,0 14,12A2,2 0 0,0 12,10M10,22C9.75,22 9.54,21.82 9.5,21.58L9.13,18.93C8.5,18.68 7.96,18.34 7.44,17.94L4.95,18.95C4.73,19.03 4.46,18.95 4.34,18.73L2.34,15.27C2.21,15.05 2.27,14.78 2.46,14.63L4.57,12.97L4.5,12L4.57,11L2.46,9.37C2.27,9.22 2.21,8.95 2.34,8.73L4.34,5.27C4.46,5.05 4.73,4.96 4.95,5.05L7.44,6.05C7.96,5.66 8.5,5.32 9.13,5.07L9.5,2.42C9.54,2.18 9.75,2 10,2H14C14.25,2 14.46,2.18 14.5,2.42L14.87,5.07C15.5,5.32 16.04,5.66 16.56,6.05L19.05,5.05C19.27,4.96 19.54,5.05 19.66,5.27L21.66,8.73C21.79,8.95 21.73,9.22 21.54,9.37L19.43,11L19.5,12L19.43,13L21.54,14.63C21.73,14.78 21.79,15.05 21.66,15.27L19.66,18.73C19.54,18.95 19.27,19.04 19.05,18.95L16.56,17.95C16.04,18.34 15.5,18.68 14.87,18.93L14.5,21.58C14.46,21.82 14.25,22 14,22H10M11.25,4L10.88,6.61C9.68,6.86 8.62,7.5 7.85,8.39L5.44,7.35L4.69,8.65L6.8,10.2C6.4,11.37 6.4,12.64 6.8,13.8L4.68,15.36L5.43,16.66L7.86,15.62C8.63,16.5 9.68,17.14 10.87,17.38L11.24,20H12.76L13.13,17.39C14.32,17.14 15.37,16.5 16.14,15.62L18.57,16.66L19.32,15.36L17.2,13.81C17.6,12.64 17.6,11.37 17.2,10.2L19.31,8.65L18.56,7.35L16.15,8.39C15.38,7.5 14.32,6.86 13.12,6.62L12.75,4H11.25Z"/>
        </symbol>
    </defs>
</svg>
